<svg width="48.000000" height="48.000000" viewBox="0 0 48 48" fill="none" xmlns="http://www.w3.org/2000/svg" xmlns:xlink="http://www.w3.org/1999/xlink">
	<desc>
			Created with Pixso.
	</desc>
	<defs/>
	<path id="Vector" d="M30.87 35.12L21 25.24L21 12L27 12L27 22.75L35.12 30.87L30.87 35.12ZM24 0C10.74 0 0 10.74 0 24C0 37.25 10.74 48 24 48C37.25 48 48 37.25 48 24C48 10.74 37.25 0 24 0ZM24 42C14.05 42 6 33.94 6 24C6 14.05 14.05 6 24 6C33.94 6 42 14.05 42 24C42 33.94 33.94 42 24 42Z" fill="#95D4F4" fill-opacity="1.000000" fill-rule="evenodd"/>
</svg>
