<svg width="48.000000" height="48.000000" viewBox="0 0 48 48" fill="none" xmlns="http://www.w3.org/2000/svg" xmlns:xlink="http://www.w3.org/1999/xlink">
	<desc>
			Created with Pixso.
	</desc>
	<defs/>
	<path id="Vector" d="M24 48C37.25 48 48 37.25 48 24C48 10.74 37.25 0 24 0C10.74 0 0 10.74 0 24C0 37.25 10.74 48 24 48ZM31.48 41.1C37.66 38.4 42.09 32.44 42.61 25.4C40.42 26.59 37.65 27.57 34.49 28.26C34.1 33.24 33.02 37.69 31.48 41.1ZM16.51 6.89C11.32 9.16 7.36 13.73 5.92 19.31C6.54 19.9 7.59 20.62 9.19 21.33C10.39 21.86 11.78 22.34 13.34 22.74C13.48 16.54 14.67 10.97 16.51 6.89ZM18.93 29.09C19.35 32.98 20.22 36.32 21.33 38.8C22.11 40.56 22.91 41.66 23.52 42.25C23.74 42.45 23.9 42.56 24 42.62C24.09 42.56 24.25 42.45 24.47 42.25C25.08 41.66 25.88 40.56 26.66 38.8C27.77 36.32 28.64 32.98 29.06 29.09C27.43 29.25 25.73 29.33 24 29.33C22.26 29.33 20.56 29.25 18.93 29.09ZM13.5 28.26C13.89 33.24 14.97 37.69 16.51 41.1C10.33 38.4 5.9 32.44 5.38 25.4C7.57 26.59 10.34 27.57 13.5 28.26ZM29.33 23.7C27.65 23.89 25.86 24 24 24C22.13 24 20.34 23.89 18.66 23.7C18.7 17.77 19.79 12.65 21.33 9.19C22.11 7.43 22.91 6.33 23.52 5.74C23.74 5.54 23.9 5.43 24 5.37C24.09 5.43 24.25 5.54 24.47 5.74C25.08 6.33 25.88 7.43 26.66 9.19C28.2 12.65 29.29 17.77 29.33 23.7ZM34.65 22.74C34.51 16.54 33.32 10.97 31.48 6.89C36.67 9.16 40.63 13.73 42.07 19.31C41.45 19.9 40.4 20.62 38.8 21.33C37.6 21.86 36.21 22.34 34.65 22.74Z" fill="#95D4F4" fill-opacity="1.000000" fill-rule="evenodd"/>
</svg>
