<svg width="48.000000" height="48.000000" viewBox="0 0 48 48" fill="none" xmlns="http://www.w3.org/2000/svg" xmlns:xlink="http://www.w3.org/1999/xlink">
	<desc>
			Created with Pixso.
	</desc>
	<defs/>
	<path id="Vector" d="M26.32 2.32C26.32 1.7 26.07 1.11 25.64 0.68C25.2 0.24 24.61 0 24 0C23.38 0 22.79 0.24 22.35 0.68C21.92 1.11 21.67 1.7 21.67 2.32L21.67 18.39L13.59 10.31C13.38 10.09 13.12 9.91 12.84 9.79C12.56 9.67 12.25 9.6 11.94 9.6C11.63 9.6 11.33 9.66 11.04 9.77C10.76 9.89 10.5 10.06 10.28 10.28C10.06 10.5 9.89 10.76 9.77 11.04C9.66 11.33 9.6 11.63 9.6 11.94C9.6 12.25 9.67 12.56 9.79 12.84C9.91 13.12 10.09 13.38 10.31 13.59L18.39 21.67L2.32 21.67C1.7 21.67 1.11 21.92 0.68 22.35C0.24 22.79 0 23.38 0 24C0 24.61 0.24 25.2 0.68 25.64C1.11 26.07 1.7 26.32 2.32 26.32L18.39 26.32L10.31 34.4C10.09 34.61 9.91 34.87 9.79 35.15C9.67 35.43 9.6 35.74 9.6 36.05C9.6 36.36 9.66 36.66 9.77 36.95C9.89 37.23 10.06 37.49 10.28 37.71C10.5 37.93 10.76 38.1 11.04 38.22C11.33 38.33 11.63 38.39 11.94 38.39C12.25 38.39 12.56 38.32 12.84 38.2C13.12 38.08 13.38 37.9 13.59 37.68L21.67 29.6L21.67 45.67C21.67 46.29 21.92 46.88 22.35 47.31C22.79 47.75 23.38 48 24 48C24.61 48 25.2 47.75 25.64 47.31C26.07 46.88 26.32 46.29 26.32 45.67L26.32 29.6L34.4 37.68C34.61 37.9 34.87 38.08 35.15 38.2C35.43 38.32 35.74 38.39 36.05 38.39C36.36 38.39 36.66 38.33 36.95 38.22C37.23 38.1 37.49 37.93 37.71 37.71C37.93 37.49 38.1 37.23 38.22 36.95C38.33 36.66 38.39 36.36 38.39 36.05C38.39 35.74 38.32 35.43 38.2 35.15C38.08 34.87 37.9 34.61 37.68 34.4L29.6 26.32L45.67 26.32C46.29 26.32 46.88 26.07 47.31 25.64C47.75 25.2 48 24.61 48 24C48 23.38 47.75 22.79 47.31 22.35C46.88 21.92 46.29 21.67 45.67 21.67L29.6 21.67L37.68 13.59C38.11 13.15 38.34 12.57 38.33 11.96C38.33 11.35 38.08 10.77 37.65 10.34C37.22 9.91 36.64 9.66 36.03 9.66C35.42 9.65 34.83 9.89 34.4 10.31L26.32 18.39L26.32 2.32Z" fill="#95D4F4" fill-opacity="1.000000" fill-rule="evenodd"/>
</svg>
